<svg xmlns="http://www.w3.org/2000/svg" width="512" height="512" viewBox="0 0 240 240">
<defs>
<clipPath id="roundClip"><circle cx="120" cy="120" r="120"/></clipPath>
<clipPath id="clip1" clipPathUnits="userSpaceOnUse">
<rect width="240" height="240" transform="matrix(1 0 0 1 0 0)"/>
</clipPath>
<clipPath id="clip2" clipPathUnits="userSpaceOnUse">
<rect x="0" y="0" width="240" height="240" transform="matrix(1 0 0 1 0 0)"/>
</clipPath>
<clipPath id="clip3" clipPathUnits="userSpaceOnUse">
<rect x="0" y="0" width="240" height="240" transform="matrix(1 0 0 1 0 0)"/>
</clipPath>
</defs>
<g clip-path="url(#roundClip)">
<g id="background">
<rect width="240" height="240" fill="#FF4D6A" transform="matrix(1 0 0 1 0 0)"/>
</g>
<g id="mop-dog">
<g clip-path="url(#clip1)">
<g clip-path="url(#clip2)">
<g transform="matrix(1 0 0 1 0 0)">
<path d="M34 218 Q120 196 208 212" fill="none" stroke="#FFFFFF" stroke-width="13" stroke-linecap="round" opacity="0.85"/>
</g>
</g>
</g>
<g clip-path="url(#clip1)">
<g clip-path="url(#clip3)">
<g transform="matrix(1 0 0 1 0 0)">
<g transform="rotate(-12 120 130) translate(6 -4) scale(0.94)">
<g fill="none" stroke-linecap="round">
<path d="M120 -40 V76" stroke="#B98A62" stroke-width="20"/>
<path d="M115 -36 V72" stroke="#D8B18C" stroke-width="5"/>
</g>
<path d="M78 102 L162 102 Q174 160 204 186 Q120 222 36 186 Q66 160 78 102Z" fill="#F8F3EE"/>
<g fill="none" stroke-linecap="round">
<g stroke="#E6DCD2" stroke-width="22">
<path d="M78 100 Q67 160 34 185"/>
<path d="M86 100 Q78 160 51 194"/>
<path d="M95 100 Q88 160 68 201"/>
<path d="M103 100 Q99 160 86 207"/>
<path d="M112 100 Q109 160 103 212"/>
<path d="M120 100 Q120 160 120 214"/>
<path d="M128 100 Q131 160 137 212"/>
<path d="M137 100 Q141 160 154 207"/>
<path d="M145 100 Q152 160 172 201"/>
<path d="M154 100 Q162 160 189 194"/>
<path d="M162 100 Q173 160 206 185"/>
</g>
<g stroke="#F8F3EE" stroke-width="13">
<path d="M78 100 Q67 160 34 185"/>
<path d="M86 100 Q78 160 51 194"/>
<path d="M95 100 Q88 160 68 201"/>
<path d="M103 100 Q99 160 86 207"/>
<path d="M112 100 Q109 160 103 212"/>
<path d="M120 100 Q120 160 120 214"/>
<path d="M128 100 Q131 160 137 212"/>
<path d="M137 100 Q141 160 154 207"/>
<path d="M145 100 Q152 160 172 201"/>
<path d="M154 100 Q162 160 189 194"/>
<path d="M162 100 Q173 160 206 185"/>
</g>
<g stroke="#D2C4B8" stroke-width="3">
<path d="M90 124 Q82 168 62 196"/>
<path d="M150 124 Q158 168 178 196"/>
</g>
</g>
<ellipse cx="120" cy="101" rx="46" ry="14" fill="#EFE7DF"/>
<rect x="92" y="70" width="56" height="30" rx="9" fill="#857D80"/>
<rect x="97" y="74" width="46" height="7" rx="3.5" fill="#A8A0A3"/>
<path d="M84 106 Q120 114 156 106 L120 140Z" fill="#D92B48"/>
<circle cx="120" cy="108" r="7" fill="#D92B48"/>
<ellipse cx="96" cy="171" rx="14" ry="8" fill="#FF8FA3" opacity="0.4"/>
<ellipse cx="144" cy="171" rx="14" ry="8" fill="#FF8FA3" opacity="0.4"/>
<ellipse cx="102" cy="156" rx="7.5" ry="9" fill="#2C252A"/>
<ellipse cx="138" cy="156" rx="7.5" ry="9" fill="#2C252A"/>
<circle cx="104.5" cy="152.5" r="2.6" fill="#FFFFFF"/>
<circle cx="140.5" cy="152.5" r="2.6" fill="#FFFFFF"/>
<path d="M110 170 Q120 165 130 170 Q131 177 120 181 Q109 177 110 170Z" fill="#2C252A"/>
<path d="M112 188 Q116 193 120 188 Q124 193 128 188" fill="none" stroke="#2C252A" stroke-width="3" stroke-linecap="round"/>
</g>
</g>
</g>
</g>
</g>
</svg>
